<mxfile host="app.diagrams.net" modified="2023-07-06T07:18:45.415Z" agent="Mozilla/5.0 (Windows NT 10.0; Win64; x64) AppleWebKit/537.36 (KHTML, like Gecko) Chrome/114.0.0.0 Safari/537.36" version="21.6.1" etag="xFIaGxYjO60R-B8WdO_E" type="github">
  <diagram name="Page-1" id="xD7Pk_g3DcGwnip9B8ev">
    <mxGraphModel>
      <root>
        <mxCell id="0" />
        <mxCell id="1" parent="0" />
      </root>
    </mxGraphModel>
  </diagram>
</mxfile>
